<?xml version="1.0" standalone="no"?>
<!DOCTYPE svg PUBLIC "-//W3C//DTD SVG 20010904//EN"
 "http://www.w3.org/TR/2001/REC-SVG-20010904/DTD/svg10.dtd">
<svg version="1.0" xmlns="http://www.w3.org/2000/svg"
 width="360.000000pt" height="360.000000pt" viewBox="0 0 360.000000 360.000000"
 preserveAspectRatio="xMidYMid meet">

<g transform="translate(0.000000,360.000000) scale(0.100000,-0.100000)"
fill="#000000" stroke="none">
<path d="M1053 2623 c-21 -8 -15 -39 24 -126 42 -96 53 -110 76 -101 23 8 22
19 -8 92 -14 34 -25 66 -25 72 0 7 32 10 92 8 l93 -3 43 -100 c24 -55 116
-269 204 -475 88 -206 168 -381 176 -387 12 -10 164 -13 683 -13 578 0 668 2
679 15 7 8 10 22 6 30 -5 13 -86 15 -669 15 l-665 0 -102 238 c-56 130 -108
251 -116 267 -7 17 -52 120 -99 230 -47 110 -93 210 -101 223 -14 21 -20 22
-147 21 -72 0 -138 -3 -144 -6z"/>
<path d="M1613 2345 c-6 -17 12 -66 55 -155 22 -45 33 -56 56 -60 17 -3 352
-3 745 0 708 5 716 5 716 25 0 20 -8 20 -725 25 l-725 5 -26 55 c-15 30 -26
56 -24 58 1 1 341 2 756 2 415 0 760 4 767 9 8 5 12 17 10 27 -3 18 -29 19
-801 22 -711 2 -798 0 -804 -13z"/>
<path d="M1005 2293 c-38 -2 -193 -7 -343 -12 -252 -8 -295 -12 -280 -26 3 -3
120 -10 259 -15 140 -5 333 -12 430 -16 l177 -7 0 42 1 41 -87 -2 c-48 -1
-118 -3 -157 -5z"/>
<path d="M1155 2149 c-77 -4 -233 -10 -346 -14 -185 -7 -244 -14 -229 -28 6
-6 712 -38 717 -33 3 2 3 21 1 42 l-3 39 -140 -6z"/>
<path d="M1771 1996 c-10 -12 -5 -32 24 -98 20 -46 43 -93 51 -106 l15 -22
627 2 627 3 0 25 0 25 -612 3 -613 2 -19 38 c-10 20 -22 47 -25 59 l-7 23 658
2 c635 3 658 4 661 22 2 10 -2 22 -10 27 -7 5 -317 9 -689 9 -576 0 -678 -2
-688 -14z"/>
<path d="M1255 1974 c-16 -2 -219 -8 -450 -14 -231 -7 -422 -14 -424 -16 -17
-17 69 -23 479 -33 256 -7 480 -14 498 -17 l32 -5 0 46 0 45 -52 -2 c-29 0
-66 -3 -83 -4z"/>
<path d="M1225 1813 c-38 -2 -177 -7 -307 -11 -217 -8 -261 -13 -246 -27 4 -4
681 -34 781 -35 25 0 27 3 27 40 l0 40 -92 -2 c-51 -1 -124 -3 -163 -5z"/>
<path d="M1425 1654 c-22 -2 -233 -8 -470 -14 -386 -10 -497 -19 -424 -34 13
-3 222 -10 464 -16 242 -6 468 -13 503 -16 l62 -6 0 46 0 46 -47 -2 c-27 -1
-66 -3 -88 -4z"/>
<path d="M1878 1470 c-30 -8 -79 -78 -75 -110 4 -42 32 -35 61 15 l27 45 384
0 384 0 31 -45 c34 -49 41 -53 60 -30 11 13 9 23 -10 58 -42 78 -7 72 -445 72
-216 0 -404 -2 -417 -5z"/>
<path d="M1624 1285 c-43 -19 -91 -80 -99 -125 -13 -74 44 -159 121 -180 115
-32 230 85 195 200 -27 92 -131 142 -217 105z m139 -85 c77 -86 -32 -212 -130
-151 -21 13 -36 33 -44 60 -10 34 -9 44 8 73 38 66 115 75 166 18z"/>
<path d="M2785 1288 c-37 -13 -72 -44 -91 -80 -22 -42 -18 -119 9 -159 24 -37
97 -79 137 -79 14 0 46 10 70 23 120 60 118 233 -4 288 -46 21 -77 22 -121 7z
m98 -59 c88 -45 71 -176 -26 -194 -39 -8 -90 13 -107 44 -13 25 -13 87 0 111
22 41 90 61 133 39z"/>
</g>
</svg>
